# xmcd
#
# Track frame offsets:
# 150
# 20253
# 36839
# 49807
# 68111
# 82652
# 98260
# 114695
# 133176
# 149682
#
# Disc length: 2199 seconds
#
#
# Revision: 0
# Processed by: cddbd v1.5.2PL0 Copyright (c) Steve Scherf et al.
# Submitted via: FreeRIP 2.951 
#
DISCID=8008950a
DTITLE=Suzie McNeil - Broken and Beautiful
DYEAR=2007
DGENRE=Alt. Rock
TTITLE0=Lonely
TTITLE1=Believe
TTITLE2=Hung Up
TTITLE3=So In Love
TTITLE4=Skin
TTITLE5=Too Low
TTITLE6=Broken and Beautiful
TTITLE7=Poison
TTITLE8=Where Were You?
TTITLE9=The One
EXTD=
EXTT0=
EXTT1=
EXTT2=
EXTT3=
EXTT4=
EXTT5=
EXTT6=
EXTT7=
EXTT8=
EXTT9=
PLAYORDER=
